<?xml version="1.0" standalone="no"?>
<!DOCTYPE svg PUBLIC "-//W3C//DTD SVG 20010904//EN"
 "http://www.w3.org/TR/2001/REC-SVG-20010904/DTD/svg10.dtd">
<svg version="1.0" xmlns="http://www.w3.org/2000/svg"
 width="920.000000pt" height="500.000000pt" viewBox="0 0 920.000000 500.000000"
 preserveAspectRatio="xMidYMid meet">

<g transform="translate(0.000000,500.000000) scale(0.100000,-0.100000)"
fill="#000000" stroke="none">
<path d="M3795 4143 c-329 -53 -610 -254 -760 -544 l-44 -86 -103 -6 c-203
-12 -371 -84 -515 -221 -129 -122 -197 -233 -245 -403 -18 -63 -22 -104 -22
-213 1 -167 17 -239 86 -380 45 -94 61 -115 152 -205 83 -83 117 -109 191
-147 50 -26 124 -57 165 -70 l75 -23 1005 -3 1006 -3 19 -35 c25 -47 87 -101
144 -127 69 -32 198 -30 266 3 114 56 178 164 179 300 0 92 -26 159 -87 218
-66 65 -125 87 -232 87 -84 0 -94 -2 -155 -36 -45 -24 -79 -53 -110 -92 l-45
-57 -965 3 c-904 2 -968 3 -1020 21 -195 65 -345 221 -395 412 -8 32 -15 100
-15 150 0 154 49 278 156 394 65 69 131 114 222 148 61 23 85 26 255 30 l187
4 6 27 c75 363 375 612 737 611 195 -1 372 -77 526 -228 l85 -83 60 25 c34 13
87 30 119 37 31 8 57 18 57 23 0 16 -88 132 -145 190 -178 181 -403 274 -675
281 -74 2 -148 1 -165 -2z"/>
<path d="M4892 3556 c-433 -83 -776 -391 -896 -807 l-24 -84 -47 -7 c-126 -18
-291 -89 -402 -172 -61 -47 -183 -171 -183 -187 0 -5 305 -9 679 -9 l679 0 16
25 c27 42 131 112 198 134 133 44 266 37 388 -21 125 -60 241 -208 271 -348
17 -79 7 -233 -20 -298 -80 -201 -265 -332 -465 -332 -125 0 -241 46 -343 135
l-51 45 -756 0 c-638 0 -756 -2 -756 -14 0 -8 11 -53 25 -100 92 -317 332
-554 648 -638 82 -22 87 -22 1157 -26 1091 -3 1194 0 1330 34 357 91 634 376
731 754 25 98 32 304 14 420 -43 276 -208 536 -439 693 -132 90 -322 159 -473
173 l-73 7 -35 63 c-82 146 -238 308 -388 402 -96 60 -219 113 -334 143 -101
27 -344 35 -451 15z"/>
</g>
</svg>
